<svg width="23" height="24" viewBox="0 0 23 24" fill="none" xmlns="http://www.w3.org/2000/svg">
<path d="M22.3521 20.3551C22.5482 20.1607 22.5496 19.8442 22.3553 19.648L19.1876 16.4518C18.9932 16.2556 18.6767 16.2542 18.4805 16.4486C18.2844 16.643 18.283 16.9596 18.4773 17.1557L21.293 19.9968L18.4519 22.8125C18.2558 23.0069 18.2544 23.3235 18.4487 23.5196C18.6431 23.7157 18.9597 23.7172 19.1558 23.5228L22.3521 20.3551ZM1.63259 20.4101C1.81481 20.4101 6.90458 20.4326 11.9519 20.4551C14.4749 20.4663 16.9864 20.4775 18.8671 20.4859C19.8075 20.4902 20.5902 20.4937 21.1378 20.4961C21.4116 20.4973 21.6266 20.4983 21.7732 20.499C21.8465 20.4993 21.9026 20.4996 21.9405 20.4997C21.9594 20.4998 21.9738 20.4999 21.9834 20.4999C21.9882 20.4999 21.9918 20.5 21.9942 20.5C21.9955 20.5 21.9964 20.5 21.997 20.5C21.9973 20.5 21.9975 20.5 21.9977 20.5C21.9978 20.5 21.9979 20.5 22.0001 20C22.0024 19.5 22.0023 19.5 22.0021 19.5C22.002 19.5 22.0018 19.5 22.0015 19.5C22.0009 19.5 21.9999 19.5 21.9987 19.5C21.9963 19.5 21.9927 19.4999 21.9879 19.4999C21.9783 19.4999 21.9639 19.4998 21.945 19.4997C21.9071 19.4996 21.851 19.4993 21.7777 19.499C21.6311 19.4983 21.4161 19.4974 21.1423 19.4961C20.5947 19.4937 19.812 19.4902 18.8716 19.4859C16.9909 19.4775 14.4793 19.4663 11.9564 19.4551C6.91178 19.4326 1.81778 19.4101 1.63259 19.4101L1.63259 20.4101ZM1.42779 0.00212782C0.92781 -0.00195621 0.927809 -0.00187575 0.927808 -0.00171965C0.927807 -0.00156655 0.927805 -0.00133478 0.927803 -0.00102917C0.927798 -0.00041795 0.92779 0.000494698 0.92778 0.0017064C0.927761 0.00412979 0.927732 0.00774938 0.927693 0.0125462C0.927616 0.0221398 0.927502 0.0364423 0.927354 0.0553017C0.927057 0.0930206 0.926622 0.148968 0.926071 0.221928C0.924969 0.367847 0.923401 0.58182 0.921535 0.854125C0.917805 1.39873 0.912886 2.17668 0.908132 3.11021C0.898625 4.97716 0.889775 7.46676 0.892412 9.95666C0.89505 12.4458 0.909168 14.9381 0.945684 16.8093C0.963921 17.7438 0.987842 18.529 1.0191 19.0829C1.03461 19.3579 1.05249 19.5866 1.07393 19.7511C1.0842 19.83 1.09773 19.9142 1.11793 19.9869C1.12694 20.0193 1.14552 20.0808 1.18196 20.1443C1.19494 20.167 1.32877 20.4101 1.63259 20.4101L1.63259 19.4101C1.92493 19.4101 2.04753 19.6435 2.04955 19.6471C2.06413 19.6725 2.07218 19.6927 2.07558 19.7017C2.07938 19.7118 2.08116 19.7182 2.08142 19.7191C2.08179 19.7205 2.07986 19.7135 2.07648 19.6947C2.07328 19.6768 2.06958 19.6529 2.06555 19.622C2.04901 19.4949 2.03271 19.2959 2.01751 19.0265C1.98733 18.4917 1.96368 17.7216 1.94549 16.7897C1.90916 14.9282 1.89505 12.4434 1.89241 9.9556C1.88978 7.46849 1.89862 4.9811 1.90812 3.1153C1.91287 2.18245 1.91778 1.40509 1.92151 0.860975C1.92338 0.58892 1.92494 0.375182 1.92604 0.22948C1.92659 0.15663 1.92703 0.100789 1.92732 0.0631722C1.92747 0.0443639 1.92758 0.0301118 1.92766 0.0205678C1.9277 0.0157958 1.92773 0.0122008 1.92775 0.0098018C1.92776 0.00860231 1.92776 0.00770182 1.92777 0.0071027C1.92777 0.00680314 1.92777 0.00658044 1.92777 0.00643035C1.92778 0.00628328 1.92778 0.00621185 1.42779 0.00212782Z" fill="#E2E8F0"/>
</svg>
