<svg width="32" height="32" viewBox="0 0 32 32" fill="none" xmlns="http://www.w3.org/2000/svg">
<path d="M0 16C0 7.16344 7.16344 0 16 0C24.8366 0 32 7.16344 32 16C32 24.8366 24.8366 32 16 32C7.16344 32 0 24.8366 0 16Z" fill="#0F172A"/>
<path d="M16.2204 18.3129C16.2204 18.3129 17.1395 4.44479 22.4433 6.74514C27.747 9.0455 16.2204 18.3129 16.2204 18.3129Z" fill="white"/>
<path d="M14.8608 6.31016C15.1556 11.446 15.5586 17.4855 9.96032 14.9715C4.36205 12.4575 8.47485 7.73911 14.8608 6.31016Z" fill="white"/>
<path d="M11.5468 26.4693C8.35467 22.4351 4.67947 17.0325 10.8431 16.3097C17.0068 15.5869 15.9525 21.6306 11.5468 26.4693Z" fill="white"/>
<path d="M18.0843 19.3167C17.8409 17.1026 24.9253 26.6216 18.8465 26.6216C12.7677 26.6216 18.3277 21.5309 18.0843 19.3167Z" fill="white"/>
</svg>
