<svg width="85" height="24" viewBox="0 0 85 24" fill="none" xmlns="http://www.w3.org/2000/svg">
<path d="M25.2659 22.81C25.0203 22.81 24.8139 22.7263 24.6464 22.5588C24.479 22.3914 24.3953 22.1849 24.3953 21.9394V10.6051C24.3953 10.3484 24.479 10.1419 24.6464 9.98568C24.8139 9.81826 25.0203 9.73455 25.2659 9.73455H29.2672C30.0262 9.73455 30.6903 9.88522 31.2595 10.1866C31.8399 10.4768 32.2919 10.8842 32.6156 11.4087C32.9504 11.9333 33.1178 12.536 33.1178 13.2169C33.1178 13.7638 32.9672 14.2604 32.6658 14.7069C32.3756 15.1422 31.9738 15.4882 31.4604 15.7449C32.197 15.9235 32.7886 16.2751 33.235 16.7996C33.6815 17.3242 33.9047 18.0106 33.9047 18.8589C33.9047 19.629 33.7206 20.3099 33.3522 20.9014C32.9951 21.4929 32.4928 21.9617 31.8455 22.3077C31.1981 22.6426 30.4559 22.81 29.6188 22.81H25.2659ZM26.1365 21.2028H29.6188C30.1322 21.2028 30.5842 21.1135 30.9749 20.9349C31.3655 20.7563 31.6725 20.494 31.8957 20.148C32.1189 19.802 32.2305 19.3723 32.2305 18.8589C32.2305 18.379 32.1189 17.9827 31.8957 17.6702C31.6725 17.3577 31.3655 17.1233 30.9749 16.9671C30.5842 16.7996 30.1322 16.7159 29.6188 16.7159H26.1365V21.2028ZM26.1365 15.1087H29.2672C29.9034 15.1087 30.4224 14.9524 30.8242 14.6399C31.2372 14.3274 31.4437 13.8531 31.4437 13.2169C31.4437 12.5807 31.2372 12.1119 30.8242 11.8105C30.4224 11.498 29.9034 11.3418 29.2672 11.3418H26.1365V15.1087Z" fill="white"/>
<path d="M40.1437 22.8769C39.3289 22.8769 38.5979 22.676 37.9505 22.2742C37.3032 21.8613 36.7897 21.3088 36.4102 20.6168C36.0419 19.9136 35.8578 19.1212 35.8578 18.2394C35.8578 17.3577 36.0587 16.5652 36.4605 15.8621C36.8734 15.1589 37.4259 14.6064 38.1179 14.2046C38.8211 13.7917 39.608 13.5852 40.4785 13.5852C41.3491 13.5852 42.1304 13.7917 42.8224 14.2046C43.5144 14.6064 44.0613 15.1589 44.4631 15.8621C44.8761 16.5652 45.0826 17.3577 45.0826 18.2394H44.4296C44.4296 19.1212 44.2399 19.9136 43.8604 20.6168C43.4921 21.3088 42.9842 21.8613 42.3369 22.2742C41.6895 22.676 40.9585 22.8769 40.1437 22.8769ZM40.4785 21.3702C41.0478 21.3702 41.5556 21.2362 42.002 20.9684C42.4485 20.6893 42.8001 20.3154 43.0568 19.8467C43.3135 19.3667 43.4418 18.831 43.4418 18.2394C43.4418 17.6367 43.3135 17.101 43.0568 16.6322C42.8001 16.1523 42.4485 15.7784 42.002 15.5105C41.5556 15.2315 41.0478 15.092 40.4785 15.092C39.9205 15.092 39.4126 15.2315 38.955 15.5105C38.5086 15.7784 38.1514 16.1523 37.8835 16.6322C37.6268 17.101 37.4985 17.6367 37.4985 18.2394C37.4985 18.831 37.6268 19.3667 37.8835 19.8467C38.1514 20.3154 38.5086 20.6893 38.955 20.9684C39.4126 21.2362 39.9205 21.3702 40.4785 21.3702ZM44.2287 22.8267C43.9832 22.8267 43.7767 22.7486 43.6093 22.5923C43.453 22.4249 43.3749 22.2184 43.3749 21.9729V19.4114L43.693 17.6367L45.0826 18.2394V21.9729C45.0826 22.2184 44.9988 22.4249 44.8314 22.5923C44.6752 22.7486 44.4743 22.8267 44.2287 22.8267Z" fill="white"/>
<path d="M50.9557 22.8769C50.1744 22.8769 49.4489 22.7598 48.7792 22.5254C48.1207 22.2798 47.6073 21.9729 47.239 21.6046C47.0716 21.426 46.999 21.2251 47.0213 21.0019C47.0548 20.7675 47.1664 20.5777 47.3562 20.4326C47.5794 20.254 47.7971 20.1815 48.0091 20.215C48.2323 20.2373 48.4221 20.3322 48.5783 20.4996C48.7681 20.7117 49.0694 20.9126 49.4824 21.1023C49.9065 21.2809 50.3753 21.3702 50.8887 21.3702C51.5361 21.3702 52.0272 21.2641 52.362 21.0521C52.708 20.84 52.8866 20.5666 52.8978 20.2317C52.9089 19.8969 52.7471 19.6067 52.4122 19.3611C52.0886 19.1156 51.4914 18.9147 50.6209 18.7584C49.4936 18.5352 48.6732 18.2004 48.1598 17.7539C47.6575 17.3075 47.4064 16.7606 47.4064 16.1132C47.4064 15.544 47.5738 15.0752 47.9087 14.7069C48.2435 14.3274 48.6732 14.0484 49.1978 13.8698C49.7224 13.6801 50.2693 13.5852 50.8385 13.5852C51.5751 13.5852 52.2281 13.7024 52.7973 13.9368C53.3665 14.1712 53.8186 14.4948 54.1534 14.9078C54.3097 15.0864 54.3822 15.2761 54.371 15.477C54.3599 15.6668 54.265 15.8286 54.0864 15.9625C53.9079 16.0853 53.6958 16.1244 53.4502 16.0797C53.2047 16.0351 52.9982 15.9346 52.8308 15.7784C52.5518 15.5105 52.2504 15.3263 51.9267 15.2259C51.6031 15.1254 51.2291 15.0752 50.805 15.0752C50.3139 15.0752 49.8954 15.1589 49.5494 15.3263C49.2145 15.4938 49.0471 15.7393 49.0471 16.063C49.0471 16.2639 49.0973 16.4481 49.1978 16.6155C49.3094 16.7717 49.5215 16.9168 49.834 17.0508C50.1465 17.1735 50.6041 17.2963 51.2068 17.4191C52.0439 17.5865 52.7024 17.7986 53.1824 18.0553C53.6735 18.312 54.025 18.6133 54.2371 18.9593C54.4492 19.2942 54.5552 19.6848 54.5552 20.1313C54.5552 20.6447 54.4157 21.1079 54.1367 21.5209C53.8688 21.9338 53.467 22.2631 52.9312 22.5086C52.4067 22.7542 51.7481 22.8769 50.9557 22.8769Z" fill="white"/>
<path d="M60.565 22.8937C59.7949 22.8937 59.1029 22.7318 58.489 22.4082C57.8863 22.0733 57.4064 21.5878 57.0492 20.9516C56.7032 20.3154 56.5302 19.5341 56.5302 18.6078V14.4893C56.5302 14.2437 56.6084 14.0428 56.7646 13.8865C56.932 13.7191 57.1385 13.6354 57.3841 13.6354C57.6296 13.6354 57.8305 13.7191 57.9868 13.8865C58.1542 14.0428 58.2379 14.2437 58.2379 14.4893V18.6078C58.2379 19.2328 58.3551 19.7518 58.5895 20.1648C58.8239 20.5666 59.142 20.8679 59.5438 21.0688C59.9456 21.2586 60.3976 21.3534 60.8999 21.3534C61.3798 21.3534 61.8039 21.2586 62.1722 21.0688C62.5517 20.8791 62.8531 20.6224 63.0763 20.2987C63.2995 19.975 63.4111 19.6123 63.4111 19.2105H64.4659C64.4659 19.9025 64.2929 20.5275 63.9469 21.0856C63.6121 21.6436 63.1489 22.0845 62.5573 22.4082C61.9769 22.7318 61.3128 22.8937 60.565 22.8937ZM64.265 22.81C64.0194 22.81 63.813 22.7319 63.6455 22.5756C63.4893 22.4082 63.4111 22.2017 63.4111 21.9561V14.4893C63.4111 14.2325 63.4893 14.0261 63.6455 13.8698C63.813 13.7135 64.0194 13.6354 64.265 13.6354C64.5217 13.6354 64.7282 13.7135 64.8844 13.8698C65.0407 14.0261 65.1188 14.2325 65.1188 14.4893V21.9561C65.1188 22.2017 65.0407 22.4082 64.8844 22.5756C64.7282 22.7319 64.5217 22.81 64.265 22.81Z" fill="white"/>
<path d="M68.9467 17.0842C68.9467 16.4146 69.1085 15.8174 69.4322 15.2929C69.7671 14.7571 70.2135 14.333 70.7716 14.0205C71.3296 13.708 71.9435 13.5517 72.6132 13.5517C73.2829 13.5517 73.7795 13.6633 74.1032 13.8865C74.438 14.0986 74.5664 14.3553 74.4883 14.6567C74.4548 14.8129 74.3878 14.9357 74.2874 15.025C74.1981 15.1031 74.092 15.1533 73.9693 15.1757C73.8465 15.198 73.7126 15.1924 73.5675 15.1589C72.8531 15.0138 72.2114 15.0027 71.6422 15.1254C71.0729 15.2482 70.6209 15.477 70.2861 15.8119C69.9624 16.1467 69.8005 16.5708 69.8005 17.0842H68.9467ZM68.9634 22.81C68.6956 22.81 68.4891 22.743 68.344 22.6091C68.1989 22.464 68.1264 22.2519 68.1264 21.9729V14.4893C68.1264 14.2214 68.1989 14.0149 68.344 13.8698C68.4891 13.7247 68.6956 13.6522 68.9634 13.6522C69.2425 13.6522 69.449 13.7247 69.5829 13.8698C69.728 14.0037 69.8005 14.2102 69.8005 14.4893V21.9729C69.8005 22.2408 69.728 22.4472 69.5829 22.5923C69.449 22.7374 69.2425 22.81 68.9634 22.81Z" fill="white"/>
<path d="M79.4152 22.8769C78.6005 22.8769 77.8694 22.676 77.222 22.2742C76.5747 21.8613 76.0613 21.3088 75.6818 20.6168C75.3135 19.9136 75.1293 19.1212 75.1293 18.2394C75.1293 17.3577 75.3302 16.5652 75.732 15.8621C76.145 15.1589 76.6975 14.6064 77.3895 14.2046C78.0926 13.7917 78.8795 13.5852 79.7501 13.5852C80.6207 13.5852 81.4019 13.7917 82.0939 14.2046C82.7859 14.6064 83.3328 15.1589 83.7346 15.8621C84.1476 16.5652 84.3541 17.3577 84.3541 18.2394H83.7012C83.7012 19.1212 83.5114 19.9136 83.1319 20.6168C82.7636 21.3088 82.2558 21.8613 81.6084 22.2742C80.9611 22.676 80.23 22.8769 79.4152 22.8769ZM79.7501 21.3702C80.3193 21.3702 80.8271 21.2362 81.2736 20.9684C81.72 20.6893 82.0716 20.3154 82.3283 19.8467C82.585 19.3667 82.7134 18.831 82.7134 18.2394C82.7134 17.6367 82.585 17.101 82.3283 16.6322C82.0716 16.1523 81.72 15.7784 81.2736 15.5105C80.8271 15.2315 80.3193 15.092 79.7501 15.092C79.192 15.092 78.6842 15.2315 78.2266 15.5105C77.7801 15.7784 77.4229 16.1523 77.1551 16.6322C76.8984 17.101 76.77 17.6367 76.77 18.2394C76.77 18.831 76.8984 19.3667 77.1551 19.8467C77.4229 20.3154 77.7801 20.6893 78.2266 20.9684C78.6842 21.2362 79.192 21.3702 79.7501 21.3702ZM83.5003 22.8267C83.2547 22.8267 83.0482 22.7486 82.8808 22.5923C82.7246 22.4249 82.6464 22.2184 82.6464 21.9729V19.4114L82.9645 17.6367L84.3541 18.2394V21.9729C84.3541 22.2184 84.2704 22.4249 84.103 22.5923C83.9467 22.7486 83.7458 22.8267 83.5003 22.8267Z" fill="white"/>
<path d="M10.5128 14.1824C10.5128 14.1824 11.5988 -2.20404 17.8657 0.514057C24.1326 3.23215 10.5128 14.1824 10.5128 14.1824Z" fill="white"/>
<path d="M8.90621 0C9.2546 6.06855 9.73075 13.2048 3.11585 10.2342C-3.49905 7.26368 1.36062 1.68844 8.90621 0Z" fill="white"/>
<path d="M4.99047 23.82C1.21861 19.0533 -3.12399 12.6696 4.15895 11.8155C11.4419 10.9614 10.1962 18.1027 4.99047 23.82Z" fill="white"/>
<path d="M12.7151 15.3686C12.4275 12.7523 20.7984 24 13.6157 24C6.43301 24 13.0027 17.9848 12.7151 15.3686Z" fill="white"/>
</svg>
